<svg width="304" height="314" viewBox="0 0 304 314" fill="none" xmlns="http://www.w3.org/2000/svg">
<path d="M226.771 64.789C184.786 66.9523 173.268 30.1292 137.896 21.5082C100.226 12.3229 83.2243 35.1755 79.1985 53.8601C76.0952 68.2635 69.5723 74.5156 52.3807 78.5205C40.1273 80.7692 29.2697 87.1391 32.1136 104.611C34.9576 122.084 29.1931 132.516 20.612 138.767C12.0309 145.018 4.02498 153.892 1.20921 165.453C-3.56003 185.023 6.1352 205.522 24.0039 214.61C44.0835 224.605 54.8675 235.547 53.4572 258.241C53.1047 263.913 55.4709 294.09 84.18 284.968C91.4308 282.665 121.426 267.129 139.629 295.963C144.161 303.143 155.384 310.208 165.64 312.711C193.142 319.415 221.26 299.134 224.052 271.209C227.081 250.546 230.839 240.857 253.168 248.074C275.262 255.215 288.484 224.453 276.121 208.672C258.964 190.886 279.437 158.899 285.939 132.209C294.826 95.7259 263.419 60.8157 226.771 64.789Z" fill="#006494"/>
<path d="M243.311 45.3781C201.326 47.5414 189.809 10.7183 154.436 2.09727C116.767 -7.08797 99.7646 15.7646 95.7388 34.4492C92.6355 48.8526 86.1126 55.1047 68.9211 59.1096C56.6677 61.3583 45.8101 67.7282 48.6539 85.2006C51.4979 102.673 45.7334 113.105 37.1523 119.356C28.5712 125.607 20.5653 134.481 17.7496 146.043C12.9803 165.613 22.6755 186.111 40.5443 195.199C60.6239 205.194 71.4079 216.136 69.9975 238.83C69.6451 244.502 72.0112 274.679 100.72 265.557C107.971 263.254 137.967 247.718 156.169 276.552C160.701 283.732 171.925 290.797 182.18 293.3C209.683 300.004 237.8 279.723 240.593 251.798C243.621 231.135 247.379 221.446 269.708 228.663C291.803 235.804 305.024 205.042 292.662 189.261C275.504 171.475 295.978 139.488 302.479 112.798C311.366 76.315 279.959 41.4048 243.311 45.3781Z" fill="#00A6FB"/>
</svg>
